<svg width="102" height="76" viewBox="0 0 102 76" fill="none" xmlns="http://www.w3.org/2000/svg">
<path d="M71.2747 6.63321C71.7102 6.63321 72.1701 6.66094 72.4126 6.94327M72.4126 6.94327C72.5292 7.07897 72.5956 7.27348 72.5849 7.552C72.5658 8.04742 72.2394 8.35675 71.7641 8.52523M72.4126 6.94327C72.4108 6.90733 72.4079 6.87134 72.4039 6.83531M72.4126 6.94327C72.4427 7.53444 72.1792 8.10932 71.7641 8.52523M71.7641 8.52523C70.9809 8.80287 69.7932 8.69805 68.9098 8.41323M71.7641 8.52523C71.5563 8.7335 71.3105 8.90191 71.0445 9.01254M68.9098 8.41323C68.4313 8.25897 68.0421 8.05192 67.8548 7.82424C66.0572 5.63945 69.4818 5.17851 70.9345 5.62934C71.5026 5.80565 72.0712 6.2869 72.4039 6.83531M68.9098 8.41323C68.9923 8.52712 69.0927 8.63511 69.2122 8.73481M68.9098 8.41323C68.217 7.45722 68.7828 6.08566 69.8966 5.71442M72.4039 6.83531C72.8797 7.61959 72.8728 8.54121 71.6916 8.90467C71.4978 8.96429 71.279 8.99972 71.0445 9.01254M72.4039 6.83531C72.4021 6.81899 72.4 6.80267 72.3977 6.78634C72.0589 4.36591 69.1638 3.05054 67.489 5.3486C66.3242 6.94678 67.6357 8.19918 69.2122 8.73481M71.0445 9.01254C70.4807 9.04337 69.8263 8.94348 69.2122 8.73481M71.0445 9.01254C70.4997 9.23917 69.8702 9.22335 69.3096 8.81109C69.2758 8.78625 69.2433 8.76082 69.2122 8.73481M24.2632 4.6425C24.2632 2.27482 26.9904 1.4569 28.9252 1.163C32.8154 0.572101 39.3294 0.392371 41.5927 4.48086C42.7478 6.56756 41.5028 8.09995 39.7636 9.32153C39.5464 9.47406 38.1056 10.2157 38.1982 10.3084M57.0335 16.8931C57.5406 16.5549 52.593 8.88523 52.2439 8.27513C50.9553 6.02377 49.6769 3.70714 48.7644 1.2736M87.8129 21.7933C87.8129 16.8033 95.2482 19.9514 97.3582 21.4871C100.846 24.0258 103.783 29.2767 98.9916 32.2914C97.332 33.3356 95.6817 32.8721 93.7851 32.9719C93.4722 32.9884 93.8047 33.4863 93.8531 33.6015C94.6779 35.5631 95.3169 37.61 96.048 39.6077C96.7812 41.6108 97.4021 43.6697 98.0728 45.6819M98.2259 51.3478C98.5202 51.593 98.8332 51.9467 99.0653 52.323M99.0653 52.323C99.5914 53.1761 99.7014 54.1455 98.2344 54.2317C96.2885 54.3462 96.4449 50.874 98.3705 50.7608C99.5793 50.6897 99.4931 51.5835 99.0653 52.323ZM99.0653 52.323C98.8759 52.6503 98.6196 52.9475 98.379 53.1173C97.6204 53.6528 97.3433 53.1853 98.2259 53.1853M67.7463 23.6099C61.4472 23.6099 55.3859 26.0157 50.8014 30.3355L47.803 33.1608C46.5645 34.3278 45.3822 35.5511 44.2597 36.8266H32.6819C31.269 36.8266 29.9597 37.5679 29.2328 38.7795L23.0068 49.156C22.72 49.6341 22.682 50.2214 22.905 50.7324C23.128 51.2434 23.5843 51.615 24.1299 51.7299L34.6379 53.9421C34.7268 54.0553 34.8252 54.163 34.9329 54.2641L39.5207 58.5695L43.8234 63.1545C43.9245 63.2623 44.0323 63.3607 44.1455 63.4497L46.3578 73.9578C46.4726 74.5033 46.8442 74.9597 47.3552 75.1826C47.8662 75.4056 48.4535 75.3677 48.9316 75.0808L59.3082 68.8549C60.5197 68.128 61.2611 66.8186 61.2611 65.4057V53.8272C62.5371 52.704 63.7609 51.5211 64.9283 50.2818L67.7511 47.2855C72.0715 42.6993 74.4767 36.6359 74.4748 30.3352L74.4741 27.6311C74.4734 25.4101 72.6727 23.6099 70.4517 23.6099H67.7463ZM57.8133 56.6215C57.0487 57.1913 56.2688 57.7413 55.4745 58.2708L47.6735 63.4715L49.233 70.8793L57.5343 65.8985C57.7074 65.7946 57.8133 65.6076 57.8133 65.4057V56.6215ZM34.6159 50.4141L39.8183 42.6106C40.3472 41.8171 40.8966 41.0381 41.4657 40.2743H32.6819C32.4801 40.2743 32.293 40.3802 32.1892 40.5533L27.2084 48.8546L34.6159 50.4141ZM53.1658 32.8448C57.1106 29.1278 62.3261 27.0577 67.7463 27.0577H70.4517C70.769 27.0577 71.0262 27.3148 71.0263 27.6321L71.0271 30.3363C71.0287 35.7578 68.9591 40.9751 65.2415 44.9213L62.4188 47.9177C59.7598 50.7402 56.7885 53.2512 53.562 55.4021L46.0045 60.4405L41.9973 56.1703C41.9724 56.1437 41.9465 56.1178 41.9199 56.0929L37.647 52.083L42.687 44.5231C44.8369 41.2981 47.3465 38.3281 50.1674 35.6701L53.1658 32.8448ZM61.2611 40.2741C61.2611 42.1782 59.7174 43.7218 57.8133 43.7218C55.9092 43.7218 54.3656 42.1782 54.3656 40.2741C54.3656 38.3699 55.9092 36.8263 57.8133 36.8263C59.7174 36.8263 61.2611 38.3699 61.2611 40.2741ZM35.9775 70.1546C38.0458 68.0863 38.0458 64.1782 35.9775 62.1099C33.9093 60.0417 30.001 60.0416 27.9327 62.1099C25.1543 64.8883 24.6114 71.0769 24.5084 73.0122C24.4911 73.3363 24.751 73.5962 25.0751 73.5789C27.0105 73.4758 33.1995 72.9326 35.9775 70.1546ZM19.888 19.5875C14.3716 28.7815 32.9128 23.4184 42.873 19.5875L21.0373 41.4233L1.5 19.5875H19.888Z" stroke="black" stroke-linecap="round"/>
</svg>
